<?xml version="1.0" encoding="UTF-8"?>
<svg id="Camada_2" data-name="Camada 2" xmlns="http://www.w3.org/2000/svg" viewBox="0 0 2097.41 540.28">
  <defs>
    <style>
      .cls-1 {
        fill: #ec6d1d;
      }

      .cls-2 {
        fill: #10304b;
      }
    </style>
  </defs>
  <g id="Camada_1-2" data-name="Camada 1">
    <g>
      <path class="cls-2" d="M759.15,277.67l.03,27.63c4.79-2.21,5.1-9,9.55-13.91,27.09-29.87,85.51-24.42,101.04,13.91h4.07c27.25-46.96,108.09-43.43,125.96,9.54,1.14,3.37,5.37,20.2,5.37,22.27v128.54h-44.23v-117.48c0-1.01-4.8-14.3-5.89-16.22-12.08-21.17-44.5-23.45-61.89-7.33-3.06,2.83-12.38,20.74-12.38,23.55v117.48h-44.23v-123.01c0-1.66-10.94-19.82-13.88-22.05-23.88-18.19-63.52,3.92-63.52,30.35v114.72h-44.23v-183.82l4.15-4.15h40.08Z"/>
      <polygon class="cls-2" points="678.99 214.09 678.99 252.79 568.42 252.79 568.42 319.14 673.46 319.14 673.46 357.84 568.42 357.84 568.42 424.18 678.99 424.18 678.99 465.64 524.19 465.64 524.19 214.09 678.99 214.09"/>
      <path class="cls-2" d="M1204.2,465.64h-44.23l-.03-22.11c-29.89,39.81-111.65,35.54-120.93-18.62-11.37-66.31,74.33-73.37,120.97-72.59,9.18-53.22-58.96-61.17-73.27-13.83h-40.08c-4.03-72.28,118.45-86.77,148.86-34.15,1.69,2.93,8.7,22.54,8.7,24.47v136.83ZM1159.98,382.7c-11.33.5-22.91-.88-34.23.35-73.13,7.94-42.66,71.44,11.2,47.13,20.72-9.35,25.27-25.71,23.03-47.48Z"/>
      <polygon class="cls-2" points="1367.29 277.67 1411.54 413.12 1462.65 277.67 1505.5 277.67 1408.75 540.28 1361.76 540.28 1389.33 464.6 1320.3 277.67 1367.29 277.67"/>
      <path class="cls-2" d="M2094.29,338.49h-41.46c2.6-50.58-89.61-30.63-60.94,3.55,15.99,19.06,93.55,5.47,103.94,54.34,19.94,93.83-154.12,98.64-155.18,11.08l38.56-2.26c6.94,7,5.61,14.5,14.17,21.77,19.24,16.32,69.35,10.12,61.11-19.42-5.09-18.22-55.86-20.63-74.24-28.26-56.05-23.27-42.87-87.59,11.72-103.04,46.4-13.13,103.09,7.41,102.33,62.25Z"/>
      <path class="cls-2" d="M1920.14,344.01h-40.08c-33.54-62.04-100.44-26.2-91.88,39.38,6.48,49.66,66.35,71.53,87.73,21.44h44.23c-7.98,51.2-55.67,70.66-103.33,63.23-72.15-11.25-93.09-100.05-57.07-155.9,41.11-63.73,153.34-48.41,160.39,31.86Z"/>
      <path class="cls-2" d="M1593.96,230.68v46.99h44.23v38.7h-40.08c-.84,0-2.12-3.5-4.15-2.76v100.9c0,18.78,31.53,17.22,44.23,12.44v38.7c-21.89,3.06-60.8,8.26-77.45-9.62-3.11-3.34-11-21.37-11-24.93v-113.33c0-8.24-25.34-1.14-30.41-1.38v-38.7h30.41v-46.99h44.23Z"/>
      <rect class="cls-2" x="1248.43" y="205.8" width="44.23" height="259.84"/>
      <rect class="cls-2" x="1665.83" y="277.67" width="44.23" height="187.97"/>
      <circle class="cls-2" cx="1688.43" cy="229.94" r="26.9"/>
    </g>
    <g>
      <path class="cls-1" d="M366.5.46c25.95-3.13,52.52,9.84,63.7,33.65,22.35,47.61-19.33,99.22-70.68,85.64-3.43-.91-13.78-6.34-15.77-5.26-1.21.65-2.61,3.7-3.98,5.08-81.28,81.61-177.22,168.55-285.8,211.71-7.37,2.93-25.48,10.07-32.59,10.44-18.12.96-29.51-24.94-14.29-36.33,6.61-4.95,23.95-8.66,32.87-12.08,95.53-36.64,197.52-119.12,266.83-193.72,1.97-2.12,11.66-12.44,12.23-13.8,1.42-3.37-2.31-11.21-3.01-15.45-5.45-32.81,16.77-65.82,50.48-69.89Z"/>
      <rect class="cls-1" x="328.72" y="186.66" width="95" height="280" rx="16" ry="16"/>
      <rect class="cls-1" x="183.84" y="276.66" width="95" height="190" rx="16" ry="16"/>
      <rect class="cls-1" x="40.2" y="371.66" width="95" height="95" rx="16" ry="16"/>
    </g>
  </g>
</svg>